<svg id="Layer_2" data-name="Layer 2" xmlns="http://www.w3.org/2000/svg" viewBox="0 0 500 500"><defs><style>.cls-1{fill:#22a39f;}</style></defs><title>dicodev</title><path class="cls-1" d="M394,193H322a80,80,0,0,1,0-160.07h87.45A40.59,40.59,0,0,1,450,73.43a8.06,8.06,0,0,1-16.11,0A24.46,24.46,0,0,0,409.45,49H322a63.93,63.93,0,0,0,0,127.85H394A8.06,8.06,0,0,1,394,193Z"/><path class="cls-1" d="M178,88.93H130a24,24,0,0,0-24,24v144a24,24,0,0,0,24,24v0h48a24,24,0,0,0,24-24v-144a24,24,0,0,0-24-24"/><path class="cls-1" d="M202,467.11a7.93,7.93,0,0,1-3.36-.74,8.05,8.05,0,0,1-4.7-7.32V339.6a2.68,2.68,0,0,0-2.68-2.69H90.53A40.57,40.57,0,0,1,50,296.38V73.43A40.58,40.58,0,0,1,90.53,32.89H206.81a40.58,40.58,0,0,1,40.53,40.54,8.06,8.06,0,0,1-16.11,0A24.46,24.46,0,0,0,206.81,49H90.53A24.46,24.46,0,0,0,66.11,73.43v223A24.45,24.45,0,0,0,90.53,320.8H191.27a18.81,18.81,0,0,1,18.79,18.8V441.49L342,328a29.56,29.56,0,0,1,19.27-7.15h48.19a24.45,24.45,0,0,0,24.42-24.42,8.06,8.06,0,1,1,16.11,0,40.57,40.57,0,0,1-40.53,40.53H361.28a13.39,13.39,0,0,0-8.76,3.25l-145.26,125A8.06,8.06,0,0,1,202,467.11Z"/><path class="cls-1" d="M446.08,500H53.92A54,54,0,0,1,0,446.08V53.92A54,54,0,0,1,53.92,0H446.08A54,54,0,0,1,500,53.92V446.08A54,54,0,0,1,446.08,500ZM53.92,9.8A44.18,44.18,0,0,0,9.8,53.92V446.08A44.17,44.17,0,0,0,53.92,490.2H446.08a44.17,44.17,0,0,0,44.12-44.12V53.92A44.17,44.17,0,0,0,446.08,9.8Z"/></svg>